<svg width="142" height="42" viewBox="0 0 142 42" fill="none" xmlns="http://www.w3.org/2000/svg">
<path d="M12.8262 18.0735H8.94977L0.143555 41.0174H4.54666L7.09297 34.5295H14.9708L17.87 41.0174H22.1537L12.8262 18.0735ZM8.38513 30.6964L11.0346 24.4311L13.5646 30.6964H8.3797H8.38513Z" fill="#2E3033"/>
<path d="M85.947 32.2113C85.947 27.0861 81.7936 22.9436 76.6793 22.9436C71.565 22.9436 67.4116 27.0915 67.4116 32.2113C67.4116 37.3311 71.565 41.479 76.6793 41.479C80.6535 41.479 84.0522 38.9707 85.3661 35.4471H80.7024C79.7848 36.6741 78.3298 37.4614 76.6793 37.4614C74.6053 37.4614 72.8191 36.2018 72.0536 34.4101H85.6864C85.8493 33.7152 85.947 32.9497 85.947 32.2059V32.2113ZM72.0319 30.5337C72.7811 28.704 74.5782 27.4173 76.6793 27.4173C78.7804 27.4173 80.5775 28.704 81.3322 30.5337H72.0373H72.0319Z" fill="#2E3033"/>
<path d="M23.3755 23.5784H27.3768C27.784 24.3874 27.8383 24.4471 27.8383 24.4471C28.707 23.5784 29.5757 23.345 31.199 23.345V27.4006C30.0426 27.4006 27.898 27.8621 27.4908 30.0664V41.0171H23.3755V23.5784V23.5784Z" fill="#2E3033"/>
<path d="M59.8165 23.5784H63.8124C64.2196 24.3874 64.2739 24.4471 64.2739 24.4471C65.1425 23.5784 66.0112 23.345 67.6346 23.345V27.3952C66.4727 27.3952 64.3336 27.8621 63.9264 30.0664V41.0171H59.811V23.5784H59.8165Z" fill="#2E3033"/>
<path d="M34.9015 18.0134H38.9572V23.5784H40.9605V27.2866H38.9572V41.0171H34.9015V27.2866H32.7896V23.5784H34.9015V18.0134Z" fill="#2E3033"/>
<path d="M42.6108 17.9595V41.0175H46.9542V29.3718C47.4429 26.6789 53.7679 26.744 53.7679 29.4858L53.7896 41.012H57.905V28.2805C56.9929 21.9392 48.8544 21.7871 46.6773 24.3226L46.6936 17.965L42.6108 17.9541V17.9595Z" fill="#2E3033"/>
<path d="M134.55 14.4739C139.251 13.8115 142.199 11.2815 141.825 6.10199C141.537 2.20381 138.28 -0.413084 132.66 0.0538303C127.046 0.526173 124.734 4.52209 125.255 8.49086C125.515 10.5377 126.4 12.047 127.687 13.0568L103.386 15.4728C101.013 15.8203 99.618 16.6347 98.3747 18.4698C98.3747 18.4698 95.6764 22.6231 92.6143 27.352L87.0493 18.6001L91.0453 16.1081L91.5122 14.8919L92.4351 14.3056L90.3503 11.4118L89.5956 11.9276L88.0918 11.9873L84.3239 14.4196L81.0772 9.08807L81.8319 5.61879L80.5017 3.59369L72.6836 8.51257L73.8889 10.4617L77.5427 11.2923L90.1983 31.0819C86.8593 36.2397 83.8026 41.0174 83.8026 41.0174H88.6727L92.598 34.8389L96.5559 41.0174H101.306L94.9869 31.0765L99.8569 23.405C100.84 22.1237 103.104 21.6676 106.177 22.6503L125.76 27.9275C123.306 28.6876 121.541 30.539 121.145 33.5848C120.635 37.5155 122.915 41.4843 128.48 41.9458C134.045 42.4127 137.264 39.8175 137.547 35.9573C137.851 31.8528 136.037 29.4151 132.943 28.275L108.397 19.2516L130.505 14.8974C132.123 14.7182 133.583 14.615 134.555 14.4793L134.55 14.4739ZM86.1752 23.519L80.6157 14.8919L82.9123 13.4749L84.1338 15.3263L88.3198 12.7474H89.6499L90.2254 12.3999L91.5067 14.197L90.8118 14.6585L90.524 15.5923L86.1047 18.3992L89.3187 23.5081L86.1752 23.519V23.519ZM130.13 29.0839C133.849 29.5997 136.184 31.614 135.885 35.7076C135.663 38.7968 133.089 40.8708 128.643 40.4962C124.196 40.127 122.377 36.9617 122.785 33.8182C123.268 30.0395 126.411 28.5573 130.13 29.0839V29.0839ZM126.911 8.25197C126.504 5.07587 128.339 1.88348 132.834 1.50886C137.324 1.13425 139.925 3.22993 140.147 6.33545C140.451 10.478 138.095 12.5031 134.332 13.0297C130.575 13.5618 127.405 12.0633 126.905 8.25197H126.911Z" fill="#2E3033"/>
<path d="M105.949 39.6709C105.943 39.584 105.943 39.508 105.943 39.4429V39.2148C105.943 39.0574 105.883 38.8999 105.775 38.7371C105.666 38.5742 105.487 38.4765 105.243 38.433C105.433 38.4004 105.585 38.3516 105.688 38.281C105.889 38.1507 105.997 37.9444 105.997 37.6729C105.997 37.2875 105.835 37.0214 105.52 36.8911C105.335 36.8097 105.058 36.7771 104.673 36.7771H103.592V39.8663H104.135V38.6448H104.57C104.857 38.6448 105.064 38.6773 105.172 38.7425C105.368 38.8619 105.465 39.0954 105.465 39.4537V39.8012C105.465 39.8012 105.476 39.8283 105.476 39.8338C105.482 39.8446 105.482 39.8609 105.487 39.8663H105.992L105.97 39.8283C105.97 39.8283 105.949 39.7469 105.943 39.6709H105.949ZM105.14 38.1996C105.02 38.243 104.852 38.2647 104.624 38.2647H104.13V37.1409H104.597C104.901 37.1409 105.112 37.1789 105.254 37.2603C105.389 37.3417 105.465 37.4883 105.465 37.7109C105.465 37.9498 105.351 38.1127 105.145 38.1941L105.14 38.1996Z" fill="#2E3033"/>
<path d="M106.719 36.3431C106.176 35.7893 105.503 35.5178 104.727 35.5178C103.95 35.5178 103.288 35.7947 102.745 36.3431C102.191 36.886 101.92 37.5592 101.92 38.3302C101.92 39.1011 102.191 39.7798 102.74 40.3227C103.283 40.8819 103.945 41.1534 104.727 41.1534C105.509 41.1534 106.176 40.8765 106.719 40.3227C107.273 39.7689 107.545 39.1065 107.545 38.3302C107.545 37.5538 107.268 36.886 106.719 36.3431V36.3431ZM106.437 40.0567C105.97 40.529 105.4 40.7679 104.727 40.7679C104.054 40.7679 103.489 40.529 103.017 40.0567C102.544 39.5789 102.316 38.998 102.316 38.3302C102.316 37.6624 102.544 37.0814 103.017 36.6091C103.489 36.1368 104.059 35.8979 104.727 35.8979C105.395 35.8979 105.965 36.1368 106.437 36.6091C106.909 37.0814 107.148 37.6515 107.148 38.3302C107.148 39.0088 106.909 39.5789 106.437 40.0567Z" fill="#2E3033"/>
</svg>
